<?xml version="1.0" standalone="no"?>
<!DOCTYPE svg PUBLIC "-//W3C//DTD SVG 20010904//EN"
 "http://www.w3.org/TR/2001/REC-SVG-20010904/DTD/svg10.dtd">
<svg version="1.0" xmlns="http://www.w3.org/2000/svg"
 width="256.000000pt" height="256.000000pt" viewBox="0 0 256.000000 256.000000"
 preserveAspectRatio="xMidYMid meet">

<g transform="translate(0.000000,256.000000) scale(0.100000,-0.100000)"
fill="#000000" stroke="none">
<path d="M0 1280 l0 -1280 1280 0 1280 0 0 1280 0 1280 -1280 0 -1280 0 0
-1280z m682 86 c6 -16 21 -26 37 -28 15 -2 27 -10 29 -20 3 -14 -3 -18 -27
-18 -29 0 -31 -2 -31 -40 0 -36 3 -40 25 -40 14 0 25 -2 25 -4 0 -2 3 -11 6
-20 5 -12 -1 -16 -25 -16 -41 0 -71 34 -71 79 0 25 -6 40 -20 49 -11 7 -20 17
-20 22 0 6 9 10 20 10 15 0 20 7 20 25 0 32 17 32 32 1z m832 8 c3 -9 6 -55 6
-104 l0 -88 -27 0 c-54 1 -73 9 -88 38 -36 69 0 149 55 120 18 -10 20 -8 20
20 0 32 23 42 34 14z m464 4 c8 -8 12 -46 12 -104 l0 -92 -42 0 c-60 -1 -88
27 -88 87 0 25 4 51 8 57 12 18 42 24 63 14 17 -10 19 -7 19 20 0 32 8 38 28
18z m-1558 -54 c8 -8 16 -40 18 -79 4 -53 2 -65 -11 -65 -19 0 -27 21 -27 75
0 50 -11 62 -34 39 -10 -10 -16 -33 -16 -65 0 -27 -4 -49 -10 -49 -18 0 -30
39 -30 99 0 57 1 60 28 64 35 5 63 -2 82 -19z m131 16 c15 0 49 -63 49 -90 0
-39 -27 -70 -60 -70 -57 0 -103 95 -67 141 15 19 37 29 55 23 8 -2 18 -4 23
-4z m346 -16 c14 -20 18 -144 4 -144 -18 0 -30 27 -34 75 -3 48 -3 48 -5 -12
-1 -35 -6 -63 -11 -63 -18 0 -30 27 -34 75 -3 48 -3 48 -5 -12 -1 -35 -6 -63
-10 -63 -22 0 -32 29 -32 91 0 75 2 77 74 73 25 -1 44 -8 53 -20z m294 -5 c16
-17 29 -35 29 -40 0 -16 -22 -9 -40 13 -15 19 -20 20 -34 9 -21 -18 -22 -81
-1 -81 9 0 18 7 21 15 8 19 21 19 41 0 14 -14 14 -18 -2 -35 -24 -26 -63 -25
-92 2 -18 16 -23 32 -23 67 0 50 7 65 30 74 29 11 42 7 71 -24z m159 -7 c24
-30 26 -94 4 -116 -23 -23 -61 -19 -90 9 -21 21 -25 33 -22 72 2 38 8 50 26
59 31 15 58 7 82 -24z m299 12 c35 -29 44 -84 15 -84 -14 0 -13 -2 1 -17 16
-16 16 -17 -1 -30 -51 -37 -114 8 -114 81 0 35 5 48 22 60 31 22 41 20 77 -10z
m467 4 c7 -5 18 -23 25 -40 11 -26 10 -32 -4 -43 -12 -9 -13 -15 -5 -23 17
-17 -9 -42 -42 -42 -57 0 -103 97 -67 142 22 28 63 31 93 6z m-1148 -13 c7
-14 12 -32 12 -40 0 -29 17 -14 29 25 12 40 30 51 48 28 16 -20 -54 -190 -76
-186 -12 3 -15 13 -13 44 2 24 -5 59 -18 88 -11 26 -20 52 -20 57 0 19 27 8
38 -16z m1229 13 c6 -7 13 -25 17 -40 9 -40 23 -35 36 12 11 40 35 54 46 25 8
-21 -35 -145 -51 -145 -20 0 -37 27 -61 96 -17 48 -20 64 -10 64 8 0 18 -6 23
-12z m-412 -104 c19 -19 15 -38 -8 -42 -17 -4 -41 33 -32 48 9 14 21 12 40 -6z"/>
<path d="M1453 1303 c-8 -2 -13 -22 -13 -45 0 -32 3 -39 18 -36 12 2 18 15 20
46 3 41 0 46 -25 35z"/>
<path d="M1912 1298 c-18 -18 -16 -78 3 -78 18 0 37 35 33 62 -4 26 -19 33
-36 16z"/>
<path d="M523 1303 c-8 -2 -13 -22 -13 -45 0 -32 3 -39 18 -36 12 2 18 15 20
46 3 41 0 46 -25 35z"/>
<path d="M1298 1299 c-12 -7 -18 -22 -18 -44 0 -28 4 -35 20 -35 14 0 21 9 26
36 8 41 -3 57 -28 43z"/>
<path d="M1605 1300 c-3 -5 3 -10 14 -10 12 0 21 5 21 10 0 6 -6 10 -14 10 -8
0 -18 -4 -21 -10z"/>
<path d="M1590 1230 c0 -5 9 -10 20 -10 11 0 20 5 20 10 0 6 -9 10 -20 10 -11
0 -20 -4 -20 -10z"/>
<path d="M2070 1300 c-12 -8 -11 -10 8 -10 12 0 22 5 22 10 0 13 -11 13 -30 0z"/>
<path d="M2060 1230 c0 -5 6 -10 14 -10 8 0 18 5 21 10 3 6 -3 10 -14 10 -12
0 -21 -4 -21 -10z"/>
</g>
</svg>
